<?xml version="1.0" encoding="utf-8"?><svg xmlns="http://www.w3.org/2000/svg" xmlns:xlink="http://www.w3.org/1999/xlink"><symbol viewBox="0 0 30 13" id="arrow" xmlns="http://www.w3.org/2000/svg"><path d="M23.889 12.355 29.5 6.177l-1-1.1v-.073h-.066L23.888 0l-1.48 1.346 3.323 3.658H0v2h26.046l-3.637 4.005 1.48 1.346z"/></symbol><symbol viewBox="0 0 512 512" id="fb" xmlns="http://www.w3.org/2000/svg"><path d="M134.941 272.691h56.123v231.051a8.256 8.256 0 0 0 8.258 8.258h95.159a8.256 8.256 0 0 0 8.258-8.258V273.78h64.519a8.26 8.26 0 0 0 8.204-7.315l9.799-85.061a8.259 8.259 0 0 0-8.202-9.203h-74.316V118.88c0-16.073 8.654-24.224 25.726-24.224h48.59a8.258 8.258 0 0 0 8.258-8.258V8.319a8.256 8.256 0 0 0-8.258-8.258h-66.965A65.863 65.863 0 0 0 307.027 0c-11.619 0-52.006 2.281-83.909 31.63-35.348 32.524-30.434 71.465-29.26 78.217v62.352H134.94a8.256 8.256 0 0 0-8.258 8.258v83.975a8.26 8.26 0 0 0 8.259 8.259z"/></symbol><symbol preserveAspectRatio="xMidYMid" viewBox="0 0 256 256" id="instagram" xmlns="http://www.w3.org/2000/svg"><path d="M128 23.064c34.177 0 38.225.13 51.722.745 12.48.57 19.258 2.655 23.769 4.408 5.974 2.322 10.238 5.096 14.717 9.575 4.48 4.479 7.253 8.743 9.575 14.717 1.753 4.511 3.838 11.289 4.408 23.768.615 13.498.745 17.546.745 51.723 0 34.178-.13 38.226-.745 51.723-.57 12.48-2.655 19.257-4.408 23.768-2.322 5.974-5.096 10.239-9.575 14.718-4.479 4.479-8.743 7.253-14.717 9.574-4.511 1.753-11.289 3.839-23.769 4.408-13.495.616-17.543.746-51.722.746-34.18 0-38.228-.13-51.723-.746-12.48-.57-19.257-2.655-23.768-4.408-5.974-2.321-10.239-5.095-14.718-9.574-4.479-4.48-7.253-8.744-9.574-14.718-1.753-4.51-3.839-11.288-4.408-23.768-.616-13.497-.746-17.545-.746-51.723 0-34.177.13-38.225.746-51.722.57-12.48 2.655-19.258 4.408-23.769 2.321-5.974 5.095-10.238 9.574-14.717 4.48-4.48 8.744-7.253 14.718-9.575 4.51-1.753 11.288-3.838 23.768-4.408 13.497-.615 17.545-.745 51.723-.745M128 0C93.237 0 88.878.147 75.226.77c-13.625.622-22.93 2.786-31.071 5.95-8.418 3.271-15.556 7.648-22.672 14.764C14.367 28.6 9.991 35.738 6.72 44.155 3.555 52.297 1.392 61.602.77 75.226.147 88.878 0 93.237 0 128c0 34.763.147 39.122.77 52.774.622 13.625 2.785 22.93 5.95 31.071 3.27 8.417 7.647 15.556 14.763 22.672 7.116 7.116 14.254 11.492 22.672 14.763 8.142 3.165 17.446 5.328 31.07 5.95 13.653.623 18.012.77 52.775.77s39.122-.147 52.774-.77c13.624-.622 22.929-2.785 31.07-5.95 8.418-3.27 15.556-7.647 22.672-14.763 7.116-7.116 11.493-14.254 14.764-22.672 3.164-8.142 5.328-17.446 5.95-31.07.623-13.653.77-18.012.77-52.775s-.147-39.122-.77-52.774c-.622-13.624-2.786-22.929-5.95-31.07-3.271-8.418-7.648-15.556-14.764-22.672C227.4 14.368 220.262 9.99 211.845 6.72c-8.142-3.164-17.447-5.328-31.071-5.95C167.122.147 162.763 0 128 0zm0 62.27c-36.302 0-65.73 29.43-65.73 65.73 0 36.302 29.428 65.73 65.73 65.73 36.301 0 65.73-29.428 65.73-65.73 0-36.301-29.429-65.73-65.73-65.73zm0 108.397c-23.564 0-42.667-19.103-42.667-42.667S104.436 85.333 128 85.333s42.667 19.103 42.667 42.667-19.103 42.667-42.667 42.667zm83.686-110.994c0 8.484-6.876 15.36-15.36 15.36-8.483 0-15.36-6.876-15.36-15.36 0-8.483 6.877-15.36 15.36-15.36 8.484 0 15.36 6.877 15.36 15.36z"/></symbol><symbol fill="none" viewBox="0 0 212 50" id="logo" xmlns="http://www.w3.org/2000/svg"><path d="M79.992 41v-.32l1.312-.32c.875-.192 1.312-.725 1.312-1.6V20.52h-2.72c-.79 0-1.355.213-1.696.64-.341.405-.704.97-1.088 1.696l-1.152 2.24h-.32l.16-5.216h18.464l.128 5.216h-.32l-1.152-2.24c-.363-.725-.715-1.29-1.056-1.696-.341-.427-.907-.64-1.696-.64h-2.72v18.24c0 .875.437 1.408 1.312 1.6l1.312.32V41h-10.08zm15.774 0v-.32l.672-.224c.427-.15.704-.341.832-.576.129-.256.193-.608.193-1.056V22.088c0-.427-.064-.757-.192-.992-.107-.256-.363-.459-.769-.608l-.736-.288v-.32h9.153c2.517 0 4.448.48 5.792 1.44 1.344.939 2.016 2.25 2.016 3.936 0 .939-.352 1.877-1.056 2.816-.704.939-1.814 1.664-3.328 2.176l4.448 8.832c.192.363.405.661.64.896.256.213.586.405.992.576l.416.16V41h-5.728l-4.736-10.08h-2.176v7.904c0 .405.064.736.192.992s.394.448.8.576l.768.288V41h-8.193zm6.433-10.72h1.536c1.536 0 2.645-.405 3.328-1.216.682-.832 1.024-2.059 1.024-3.68 0-1.643-.32-2.859-.96-3.648-.64-.81-1.718-1.216-3.232-1.216h-1.696v9.76zM115.725 41v-.32l.8-.288c.426-.17.757-.373.992-.608.234-.256.426-.608.576-1.056l6.592-18.912h2.72l6.496 19.04c.17.47.362.832.576 1.088.213.235.544.437.992.608l.384.128V41h-8.128v-.32l.48-.16c.448-.17.714-.405.8-.704.106-.32.096-.693-.032-1.12l-1.504-4.608h-7.104l-1.536 4.512c-.15.47-.203.843-.16 1.12.064.277.32.501.768.672l.704.288V41h-4.416zm4.864-7.552h6.688l-3.232-9.952-3.456 9.952zM136.86 41v-.32l.576-.192c.427-.15.715-.352.864-.608.15-.256.224-.597.224-1.024.022-1.28.032-2.57.032-3.872V25.96c0-1.301-.01-2.592-.032-3.872 0-.427-.064-.768-.192-1.024-.106-.256-.362-.459-.768-.608l-.704-.256v-.32h15.488l.224 5.312h-.32l-1.824-3.36c-.213-.405-.458-.725-.736-.96-.277-.235-.661-.352-1.152-.352h-5.152a334.686 334.686 0 0 0-.032 4.64v4.704h3.328c.491 0 .854-.107 1.088-.32.235-.213.459-.523.672-.928l.672-1.216h.32V33h-.32l-.704-1.216a4.15 4.15 0 0 0-.672-.928c-.213-.235-.565-.352-1.056-.352h-3.328v4.288c0 1.344.011 2.667.032 3.968 0 .832.406 1.376 1.216 1.632l.96.288V41h-8.704zm17 0v-.32l.64-.256c.427-.15.704-.352.832-.608.15-.256.224-.597.224-1.024V22.088c0-.427-.064-.768-.192-1.024s-.416-.459-.864-.608l-.64-.256v-.32h8.224v.32l-.64.256c-.426.15-.714.352-.864.608-.128.256-.192.597-.192 1.024v16.704c0 .427.064.768.192 1.024.15.235.438.437.864.608l.64.256V41h-8.224zm20.102.576c-2.069 0-3.947-.416-5.632-1.248-1.664-.853-2.987-2.112-3.968-3.776-.981-1.664-1.472-3.701-1.472-6.112 0-1.835.299-3.445.896-4.832s1.408-2.55 2.432-3.488a10.475 10.475 0 0 1 3.584-2.112 13.191 13.191 0 0 1 4.32-.704c1.216 0 2.336.139 3.36.416a13.1 13.1 0 0 1 2.88 1.152l.128 3.936h-.32l-1.6-2.56a6.796 6.796 0 0 0-.704-1.088 2.402 2.402 0 0 0-.96-.768c-.32-.15-.64-.256-.96-.32-.299-.085-.683-.128-1.152-.128-1.237 0-2.368.33-3.392.992-1.003.661-1.813 1.76-2.432 3.296-.597 1.515-.896 3.595-.896 6.24 0 2.624.288 4.704.864 6.24.576 1.515 1.355 2.603 2.336 3.264 1.003.64 2.123.96 3.36.96.683 0 1.227-.043 1.632-.128a7.007 7.007 0 0 0 1.216-.448c.405-.17.715-.416.928-.736.213-.341.405-.704.576-1.088l1.408-3.136h.32l-.096 4.576c-.896.47-1.899.853-3.008 1.152-1.109.299-2.325.448-3.648.448zm18.102 0c-1.302 0-2.56-.235-3.776-.704a9.867 9.867 0 0 1-3.232-2.08c-.939-.939-1.686-2.101-2.24-3.488-.555-1.387-.832-3.008-.832-4.864 0-1.835.277-3.445.832-4.832.554-1.387 1.312-2.539 2.272-3.456a9.625 9.625 0 0 1 3.232-2.112 9.92 9.92 0 0 1 3.744-.736c1.301 0 2.549.235 3.744.704a8.858 8.858 0 0 1 3.232 2.08c.96.917 1.717 2.08 2.272 3.488.554 1.387.832 3.008.832 4.864 0 1.813-.278 3.424-.832 4.832-.555 1.387-1.312 2.55-2.272 3.488a9.864 9.864 0 0 1-3.232 2.112c-1.195.47-2.443.704-3.744.704zm0-.672c1.173 0 2.122-.31 2.848-.928.725-.64 1.248-1.717 1.568-3.232.341-1.536.512-3.637.512-6.304 0-2.688-.171-4.79-.512-6.304-.32-1.536-.843-2.613-1.568-3.232-.726-.64-1.675-.96-2.848-.96-1.152 0-2.091.32-2.816.96-.726.619-1.259 1.696-1.6 3.232-.32 1.515-.48 3.616-.48 6.304 0 2.667.16 4.768.48 6.304.341 1.515.874 2.592 1.6 3.232.725.619 1.664.928 2.816.928zm14.424.576c-.768 0-1.419-.267-1.952-.8a2.616 2.616 0 0 1-.8-1.92c0-.747.266-1.397.8-1.952a2.604 2.604 0 0 1 1.952-.832c.768 0 1.418.277 1.952.832.533.555.8 1.205.8 1.952a2.62 2.62 0 0 1-.8 1.92c-.534.533-1.184.8-1.952.8z" fill="#fff"/><path opacity=".4" d="M0 17h16V0L0 17z" fill="#fff"/><path d="M47 17H16v33l31-33z" fill="#fff"/></symbol><symbol viewBox="0 0 512.002 512.002" id="twitter" xmlns="http://www.w3.org/2000/svg"><path d="M500.398 94.784a194.219 194.219 0 0 1-24.763 9.023 109.468 109.468 0 0 0 22.287-39.193 8.258 8.258 0 0 0-12.078-9.619c-17.945 10.643-37.305 18.292-57.605 22.764-20.449-19.981-48.222-31.353-76.934-31.353-60.606 0-109.913 49.306-109.913 109.91 0 4.773.302 9.52.9 14.201-75.206-6.603-145.124-43.568-193.136-102.463a8.259 8.259 0 0 0-13.537 1.061c-9.738 16.709-14.886 35.82-14.886 55.265 0 26.484 9.455 51.611 26.158 71.246a93.118 93.118 0 0 1-14.711-6.568 8.26 8.26 0 0 0-12.267 7.03c-.012.487-.012.974-.012 1.468 0 39.531 21.276 75.122 53.805 94.52a94.762 94.762 0 0 1-8.362-1.214 8.254 8.254 0 0 0-7.731 2.638 8.25 8.25 0 0 0-1.681 7.994c12.04 37.591 43.039 65.24 80.514 73.67-31.082 19.468-66.626 29.665-103.939 29.665-7.786 0-15.616-.457-23.279-1.364A8.258 8.258 0 0 0 3.8 418.617c47.935 30.735 103.361 46.98 160.284 46.98 111.903 0 181.907-52.769 220.926-97.037 48.657-55.199 76.562-128.261 76.562-200.451 0-3.016-.046-6.061-.139-9.097 19.197-14.463 35.724-31.967 49.173-52.085a8.256 8.256 0 0 0-.545-9.906 8.245 8.245 0 0 0-9.663-2.237z"/></symbol></svg>